<?xml version="1.0" encoding="UTF-8"?>
<svg width="448px" height="512px" viewBox="0 0 448 512" version="1.1" xmlns="http://www.w3.org/2000/svg" xmlns:xlink="http://www.w3.org/1999/xlink">
    <!-- Generator: Sketch 48.2 (47327) - http://www.bohemiancoding.com/sketch -->
    <title>svg</title>
    <desc>Created with Sketch.</desc>
    <defs></defs>
    <g id="Page-1" stroke="none" stroke-width="1" fill="none" fill-rule="evenodd">
        <g id="svg" fill-rule="nonzero">
            <path d="M96,0 C78.4,0 64,14.4 64,32 L64,480 C64,497.6 78.4,512 96,512 L416,512 C433.6,512 448,497.6 448,480 L448,128 L320,0 L96,0 Z" id="Shape" fill="#E2E5E7"></path>
            <path d="M352,128 L448,128 L320,0 L320,96 C320,113.6 334.4,128 352,128 Z" id="Shape" fill="#B0B7BD"></path>
            <polygon id="Shape" fill="#CAD1D8" points="448 224 352 128 448 128"></polygon>
            <path d="M384,416 C384,424.8 376.8,432 368,432 L16,432 C7.2,432 0,424.8 0,416 L0,256 C0,247.2 7.2,240 16,240 L368,240 C376.8,240 384,247.2 384,256 L384,416 Z" id="Shape" fill="#F7B84E"></path>
            <g id="Group" transform="translate(63.000000, 291.000000)" fill="#FFFFFF">
                <path d="M1.816,23.656 C4.76,-1.16 42.232,-5.624 59.896,7.944 C68.6,14.968 59.384,26.104 51.704,20.472 C42.232,14.456 20.744,11.64 18.056,24.936 C14.6,45.928 70.248,33.912 69.368,67.928 C68.472,100.424 21.384,101.192 3.72,86.6 C-0.504,83.16 -0.376,77.544 1.928,74.072 C5.256,70.76 8.968,69.608 13.32,73.176 C23.8,80.344 50.808,85.72 52.712,67.528 C51.064,48.616 -2.152,60.008 1.816,23.656 Z" id="Shape"></path>
                <path d="M114.12,87.256 L80.344,16.504 C75.352,6.392 90.456,-1.912 96.072,8.696 L107.464,34.408 L122.168,68.184 L136.616,34.408 L148.008,8.696 C153.128,-1.016 167.96,5.112 163.624,15.736 L131,87.256 C128.056,95.32 118.984,97.224 114.12,87.256 Z" id="Shape"></path>
                <path d="M250.76,83.16 C241.672,90.696 230.536,93.912 219.288,93.912 C192.408,93.912 173.352,78.552 173.352,48.104 C173.352,22.264 193.448,2.184 220.424,2.184 C230.536,2.184 241.656,5.64 249.592,13.448 C257.384,21.112 246.136,32.504 238.472,25.736 C233.736,21.112 227.08,17.672 220.424,17.672 C204.952,17.672 189.992,30.072 189.992,48.104 C189.992,67.048 202.52,78.552 219.288,78.552 C227.08,78.552 233.736,76.248 238.472,72.792 L238.472,57.08 L219.288,57.08 C207.896,57.08 209.048,41.448 219.288,41.448 L244.872,41.448 C249.608,41.448 253.944,45.048 253.944,49.016 L253.944,76.264 C253.96,78.552 252.936,80.712 250.76,83.16 Z" id="Shape"></path>
            </g>
            <path d="M368,432 L64,432 L64,448 L368,448 C376.8,448 384,440.8 384,432 L384,416 C384,424.8 376.8,432 368,432 Z" id="Shape" fill="#CAD1D8"></path>
        </g>
    </g>
</svg>